<svg width="319.08" height="308.32" viewBox="0 0 239.31 231.24" class="displayed_equation" xmlns="http://www.w3.org/2000/svg">
  <path d="M 948.085938 2010.720312 L 948.085938 871.501562 L 2087.304688 871.501562" transform="matrix(.1 0 0 -.1 0 231.24)" fill="none" stroke-width="7.97" stroke-linejoin="round" stroke="#000" stroke-miterlimit="10" />
  <path d="M 94.808594 26.304688 L 92.746094 31.773438 L 94.808594 29.96875 L 96.875 31.773438" />
  <path d="M 948.085938 2049.353125 L 927.460938 1994.665625 L 948.085938 2012.7125 L 968.75 1994.665625 Z M 948.085938 2049.353125" transform="matrix(.1 0 0 -.1 0 231.24)" fill="none" stroke-width="7.97" stroke="#000" stroke-miterlimit="10" />
  <path d="M 212.59375 144.089844 L 207.128906 142.023438 L 208.933594 144.089844 L 207.128906 146.152344" />
  <path d="M 2125.9375 871.501562 L 2071.289063 892.165625 L 2089.335938 871.501562 L 2071.289063 850.876562 Z M 2125.9375 871.501562" transform="matrix(.1 0 0 -.1 0 231.24)" fill="none" stroke-width="7.97" stroke="#000" stroke-miterlimit="10" />
  <path d="M96.886719 19.121094L96.519531 19.121094C96.160156 20.058594 95.925781 20.226563 95.132813 20.226563L93.417969 20.226563 93.417969 20.191406 97.332031 16.066406 97.378906 15.761719 93.292969 15.761719 92.882813 17.527344 93.226563 17.527344C93.449219 16.777344 93.574219 16.578125 94.289063 16.578125L96.09375 16.578125 96.09375 16.609375 92.1875 20.71875 92.144531 21.039063 96.382813 21.039063 96.886719 19.121094M220.699219 142.011719C220.566406 141.121094 220.488281 140.765625 220.242188 140.339844L220.074219 140.339844 218.492188 140.464844 218.492188 140.785156C218.492188 140.785156 218.726563 140.765625 218.882813 140.765625 219.5625 140.765625 219.617188 141.3125 219.695313 141.8125L220.355469 145.738281C220.042969 146.21875 219.238281 147.28125 219.027344 147.28125 218.78125 147.28125 218.660156 146.6875 218.234375 146.6875 217.976563 146.6875 217.800781 146.832031 217.800781 147.167969 217.800781 147.582031 218.191406 147.894531 218.660156 147.894531 219.507813 147.894531 220.289063 146.632813 221.121094 145.472656 221.703125 144.667969 222.339844 143.710938 222.941406 142.648438 223.300781 142.046875 223.433594 141.546875 223.433594 141.109375 223.433594 140.628906 223.144531 140.261719 222.730469 140.261719 222.40625 140.261719 222.238281 140.464844 222.238281 140.699219 222.238281 141.121094 222.785156 141.433594 222.785156 141.722656 222.785156 141.992188 222.6875 142.261719 222.417969 142.695313L221.136719 144.757813 221.070313 144.757813 220.96875 143.644531 220.699219 142.011719" />
  <path d="M 948.085938 871.501562 L 296.679688 220.095312" transform="matrix(.1 0 0 -.1 0 231.24)" fill="none" stroke-width="7.97" stroke-linejoin="round" stroke="#000" stroke-miterlimit="10" />
  <path d="M 26.9375 211.960938 L 32.261719 209.554688 L 29.527344 209.371094 L 29.34375 206.636719" />
  <path d="M 269.375 192.790625 L 322.617188 216.853125 L 295.273438 218.689062 L 293.4375 246.032812 Z M 269.375 192.790625" transform="matrix(.1 0 0 -.1 0 231.24)" fill="none" stroke-width="7.97" stroke="#000" stroke-miterlimit="10" />
  <path d="M 19.214844 212.113281 L 19.179688 212.113281 L 19.046875 211.546875 C 18.890625 210.945313 18.679688 210.453125 18.410156 210.140625 L 18.242188 210.140625 L 16.691406 210.320313 L 16.691406 210.652344 C 16.691406 210.652344 16.859375 210.621094 17.039063 210.621094 C 17.773438 210.609375 17.964844 210.910156 18.265625 211.847656 L 18.578125 212.863281 L 17.773438 214.035156 C 17.339844 214.660156 17.140625 214.667969 17.09375 214.667969 C 16.90625 214.667969 16.636719 214.527344 16.390625 214.527344 C 16.125 214.527344 15.957031 214.769531 15.957031 214.992188 C 15.957031 215.273438 16.125 215.539063 16.601563 215.539063 C 17.273438 215.539063 17.640625 215.015625 18 214.433594 L 18.710938 213.277344 L 18.757813 213.277344 L 19.035156 214.402344 C 19.191406 215.128906 19.4375 215.550781 19.949219 215.550781 C 20.710938 215.550781 21.179688 214.792969 21.5 214.300781 L 21.265625 214.121094 C 20.964844 214.527344 20.753906 214.746094 20.464844 214.746094 C 20.117188 214.746094 19.894531 214.335938 19.582031 213.308594 L 19.347656 212.550781 L 20.027344 211.46875 C 20.21875 211.15625 20.375 211 20.632813 211 C 20.777344 211 21.03125 211.113281 21.210938 211.113281 C 21.511719 211.113281 21.726563 210.855469 21.726563 210.585938 C 21.726563 210.273438 21.589844 210.097656 21.167969 210.097656 C 20.507813 210.097656 20.0625 210.644531 19.761719 211.179688 L 19.214844 212.113281" />
  <path d="M 948.085938 1163.80625 L 948.085938 871.501562 L 1240.390625 871.501562" transform="matrix(.1 0 0 -.1 0 231.24)" fill="none" stroke-width="12.454" stroke-linejoin="round" stroke="#e132a2" stroke-miterlimit="10" />
  <path d="M 94.808594 110.1875 L 92.34375 116.714844 L 94.808594 114.550781 L 97.277344 116.714844" fill="#e132a2" />
  <path d="M 948.085938 1210.525 L 923.4375 1145.251562 L 948.085938 1166.892187 L 972.773438 1145.251562 Z M 948.085938 1210.525" transform="matrix(.1 0 0 -.1 0 231.24)" fill="none" stroke-width="12.454" stroke="#e132a2" stroke-miterlimit="10" />
  <path d="M 128.710938 144.089844 L 122.183594 141.621094 L 124.347656 144.089844 L 122.183594 146.558594" fill="#e132a2" />
  <path d="M 1287.109375 871.501562 L 1221.835938 896.189062 L 1243.476563 871.501562 L 1221.835938 846.814062 Z M 1287.109375 871.501562" transform="matrix(.1 0 0 -.1 0 231.24)" fill="none" stroke-width="12.454" stroke="#e132a2" stroke-miterlimit="10" />
  <path d="M90.988281 104.164063L90.988281 103.972656 89.359375 102.433594 89.171875 102.660156 89.515625 103.058594C89.671875 103.25 89.773438 103.339844 89.773438 103.496094 89.773438 103.617188 89.683594 103.640625 89.515625 103.640625L86.089844 103.640625 86.089844 104.164063 90.988281 104.164063M87.355469 106.472656L87.109375 106.472656 85.570313 106.597656 85.570313 106.886719C85.570313 106.886719 85.761719 106.863281 85.960938 106.863281 86.25 106.863281 86.308594 107.054688 86.308594 107.199219 86.308594 107.378906 86.273438 107.558594 86.273438 107.558594L84.957031 114.339844 85.871094 114.339844 86.261719 112.285156 86.910156 111.71875 87.679688 113.582031C87.8125 113.882813 88.023438 114.449219 88.59375 114.449219 89.476563 114.464844 90 113.480469 90.15625 113.203125L89.921875 113.046875C89.664063 113.402344 89.429688 113.691406 89.007813 113.691406 88.71875 113.691406 88.582031 113.460938 88.4375 113.089844L87.613281 111.171875 88.917969 110.011719C89.296875 109.6875 89.632813 109.363281 90.390625 109.34375L90.421875 109.0625 88.023438 109.0625 87.992188 109.34375C88.226563 109.34375 88.492188 109.398438 88.492188 109.597656 88.492188 109.800781 88.382813 109.910156 88.226563 110.046875L86.417969 111.683594 86.363281 111.683594 87.355469 106.472656M133.289063 150.265625L133.289063 150.074219 131.660156 148.535156 131.46875 148.757813 131.816406 149.160156C131.972656 149.347656 132.070313 149.4375 132.070313 149.59375 132.070313 149.71875 131.984375 149.738281 131.816406 149.738281L128.390625 149.738281 128.390625 150.265625 133.289063 150.265625M130.488281 159.394531C130.363281 160.0625 129.976563 162.015625 129.40625 162.015625 128.96875 162.015625 129.28125 161.035156 128.65625 161.035156 128.34375 161.035156 128.210938 161.3125 128.210938 161.546875 128.210938 161.96875 128.503906 162.382813 129.214844 162.382813 130.742188 162.382813 131.28125 160.027344 131.492188 158.957031L132.273438 154.628906 132.027344 154.628906 130.464844 154.753906 130.464844 155.054688C130.464844 155.054688 130.65625 155.03125 130.84375 155.03125 131.144531 155.03125 131.203125 155.210938 131.203125 155.355469 131.203125 155.542969 131.167969 155.699219 131.167969 155.699219zM132.5625 153.136719C132.5625 152.777344 132.316406 152.519531 131.949219 152.519531 131.582031 152.519531 131.359375 152.753906 131.359375 153.136719 131.359375 153.523438 131.582031 153.726563 131.949219 153.726563 132.316406 153.726563 132.5625 153.511719 132.5625 153.136719" fill="#e132a2" />
  <path d="M 948.085938 871.501562 L 810.546875 733.9625" transform="matrix(.1 0 0 -.1 0 231.24)" fill="none" stroke-width="12.454" stroke-linejoin="round" stroke="#e132a2" stroke-miterlimit="10" />
  <path d="M 77.75 161.148438 L 84.113281 158.277344 L 80.835938 158.0625 L 80.621094 154.789063" fill="#e132a2" />
  <path d="M 777.5 700.915625 L 841.132813 729.626562 L 808.359375 731.775 L 806.210938 764.509375 Z M 777.5 700.915625" transform="matrix(.1 0 0 -.1 0 231.24)" fill="none" stroke-width="12.454" stroke="#e132a2" stroke-miterlimit="10" />
  <path d="M85.1875 168.566406L85.1875 168.375 83.558594 166.835938 83.371094 167.058594 83.714844 167.460938C83.871094 167.648438 83.972656 167.738281 83.972656 167.894531 83.972656 168.019531 83.882813 168.039063 83.714844 168.039063L80.289063 168.039063 80.289063 168.566406 85.1875 168.566406M83.609375 171.433594C83.609375 171.078125 83.375 170.820313 83.007813 170.820313 82.652344 170.820313 82.417969 171.054688 82.417969 171.433594 82.417969 171.824219 82.652344 172.027344 83.007813 172.027344 83.375 172.027344 83.609375 171.8125 83.609375 171.433594zM83.34375 172.929688L83.097656 172.929688 81.535156 173.050781 81.535156 173.355469C81.535156 173.355469 81.726563 173.332031 81.914063 173.332031 82.21875 173.332031 82.273438 173.511719 82.273438 173.652344 82.273438 173.84375 82.238281 174 82.238281 174L81.671875 176.65625C81.523438 177.3125 81.480469 177.558594 81.480469 177.75 81.480469 178.140625 81.738281 178.339844 82.183594 178.339844 82.917969 178.339844 83.355469 177.714844 83.746094 177.167969L83.523438 177C83.34375 177.203125 83.042969 177.582031 82.664063 177.582031 82.527344 177.582031 82.460938 177.515625 82.460938 177.371094 82.460938 177.214844 82.515625 176.902344 82.515625 176.902344L83.34375 172.929688" fill="#e132a2" />
</svg>